# xmcd
#
# Track frame offsets:
#   150
#   7673
#   22239
#   35714
#   49628
#   65234
#   83840
#   97469
#   113369
#   128217
#   143705
#   158005
#   173738
#   187655
#   204015
#   217616
#   232805
#   247521
#
# Disc length: 3413 seconds
#
# Revision: 0
# Processed by: cddbd v1.5.2PL0 Copyright (c) Steve Scherf et al.
# Submitted via: uFREEDB ActiveX Control 1.5
#
DISCID=d70d5312
DTITLE=VICTOR E LEO - AO VIVO E A CORES EM SÃO PAULO
DYEAR=2009
DGENRE=Country
TTITLE0=ABERTURA
TTITLE1=BORBOLETAS
TTITLE2=ESTRELA  CADENTE
TTITLE3=VOCÊ SABIA
TTITLE4=AO VIVO E A CORES
TTITLE5=DEUS E EU NO SERTÃO
TTITLE6=MUITO NATURAL
TTITLE7=SEM TRÂNSITO, SEM AVIÃO
TTITLE8=NÃO MAIS
TTITLE9=ANUNCIAÇÃO
TTITLE10=TIMIDEZ
TTITLE11=CAVALO ENXUTO
TTITLE12=LADO ERRADO
TTITLE13=VIDA BOA
TTITLE14=TANTA SOLIDÃO
TTITLE15=MOÇA REBELDE
TTITLE16=NADA NORMAL
TTITLE17=LÁ EM CASA
EXTD=
EXTT0=
EXTT1=
EXTT2=
EXTT3=
EXTT4=
EXTT5=
EXTT6=
EXTT7=
EXTT8=
EXTT9=
EXTT10=
EXTT11=
EXTT12=
EXTT13=
EXTT14=
EXTT15=
EXTT16=
EXTT17=
PLAYORDER=
